<svg xmlns="http://www.w3.org/2000/svg" xmlns:xlink="http://www.w3.org/1999/xlink" viewBox="0 0 897 1160">
  <g id="forcap" style="isolation: isolate">
    <path id="visir" d="M210,826c8.23-.13,16.45.62,22,2,12.51,3.1,29.74-.54,40,2,13.55,3.36,25.05-1.5,38,2,4,1.09,6.56,4.85,10,6,3.82,1.27,11.16,1.29,14,2,3.31.82,18.52,2.27,20,2,3-.55,8.71-3.72,14-2,3.67,1.19,7.65,4.87,12,6,18.79,4.89,37.48,3,56,8,13.32,3.59,28.81,6.46,42,10l20,3c9.29,4,21.86,6.91,32,10l12,2c24,10.29,54.16,16,80,23,13.19,3.55,24.41,2.45,38,6,3,.79,7,3.23,10,4,10.74,2.73,25.76-2,34-4,8-2,17.32,1.68,24,3a21.58,21.58,0,0,1,1,7c-6.39,4.28-8.88,11.48-14,17-5.7,6.13-14.12,10-20,16s-9.72,14.24-16,20c-9.17,8.4-20.54,13.88-30,22-20.38,17.49-41.44,38.25-65,52-14.11,8.23-30.7,13.41-46,20-6.58,2.83-12.29,1.08-20,3-29.71,7.4-76,1-102-8-12.28-4.25-23.7-4.51-36-9-17-6.23-36.88-14.35-53-22-8.18-3.88-17.08-2.46-25-6a714.29,714.29,0,0,0-112-39H172c-13-3.18-39-5.86-52-2-2.37.71-5.35,3.28-8,4-11.93,3.25-25.53.93-36,5-3.79,1.47-18,7.35-21,10-7.66,6.84-3,8.94-19,9-1-.8-.27-.35-2-1-1.71-2.73-2.54-2.5-3-7-.83-1.66-.24-2.59,0-6,7.1-4.79,12-13,18-19s13.47-10.19,20-16c1-.86,1.06-3.07,2-4,4.36-4.32,9.66-7.66,14-12,2.29-2.29,3.62-5.82,6-8,2.88-2.63,7.06-3.39,10-6,2.39-2.13,3.72-5.72,6-8,9.67-9.67,20.33-18.33,30-28,4.95-5,8.84-11.28,14-16,2.88-2.63,7.06-3.39,10-6,3.09-2.76,5.06-7.06,8-10s7.24-4.91,10-8c7.63-8.57,13.28-18.61,21-27C204.17,828.07,207.69,827.75,210,826Z" />
  </g>
  <g id="Layer_2" data-name="Layer 2" style="isolation: isolate">
    <path id="crown" d="M557,423c14.81-.3,26,1.3,35,7,6,3.76,8.59,16.3,17,19l19,2c12.48,3.51,27.68,6.94,40,12,83.53,34.31,136.52,62.64,171,147,9.38,23,11.89,50.77,18,77q1,12.5,2,25c3.57,16.67-3.41,37.74,0,54,2.46,11.75,2.56,34.26,0,46v16c0,15.15,1,26.4-2,40-2.79,12.59-1.08,35.76-9,42-6.1,4.81-15.93,3-25,5-16.21,3.52-38,5.71-55,2H747c-12-3-28.36-12.87-45-9-22.58,5.25-30.47,3-51-2-10.73-2.63-21.15-2.63-30-5-17.29-4.64-32-6-49-11-23.27-6.89-50.29-15.85-74-23l-22-3c-14.86-4.14-32.32-8.21-47-12l-41-4c-6.51-1.74-14.05-5.39-20-7-13.95-3.79-32,1.88-45-2-6.26-1.87-11.77-6.29-19-8H278c-25.6-5.65-58.32-.82-80-5v-8c4-6.67,1.89-16.55,4-25,6.26-25,4.25-57.71,11-84l12-54c15.94-48.72,30.87-82.88,63-115l16-17c4.89-3.69,10.54-9.59,16-12,5.7-2.51,11.17-2,16-5,8.11-5.05,13.14-14.38,22-19,22.89-11.93,51.92-17.1,79-24,22.72-5.79,48.58-4.42,72-10,8.55-2,20.17.57,26-4,2.09-3.58-.54-11.49,1-14C541.25,427.19,549.36,428.43,557,423Z" />
  </g>
  <g pointer-events="none" id="shadow_Image" data-name="shadow Image">
    <image id="shadow_Image-2" data-name="shadow Image" width="842" height="666" transform="translate(24 416)" xlink:href="cap1.png"/>
  </g>
</svg>
